<?xml version="1.0" encoding="UTF-8" standalone="no"?>
<!-- Generator: Adobe Illustrator 21.0.0, SVG Export Plug-In . SVG Version: 6.00 Build 0)  -->

<svg
   version="1.1"
   id="Layer_2"
   x="0px"
   y="0px"
   viewBox="0 0 172 172"
   style="enable-background:new 0 0 172 172;"
   xml:space="preserve"
   inkscape:version="1.3.2 (091e20ef0f, 2023-11-25)"
   sodipodi:docname="HMI_HVAC_Left_Chair_OFF.svg"
   xmlns:inkscape="http://www.inkscape.org/namespaces/inkscape"
   xmlns:sodipodi="http://sodipodi.sourceforge.net/DTD/sodipodi-0.dtd"
   xmlns="http://www.w3.org/2000/svg"
   xmlns:svg="http://www.w3.org/2000/svg"
   xmlns:rdf="http://www.w3.org/1999/02/22-rdf-syntax-ns#"
   xmlns:cc="http://creativecommons.org/ns#"
   xmlns:dc="http://purl.org/dc/elements/1.1/"><metadata
     id="metadata49"><rdf:RDF><cc:Work
         rdf:about=""><dc:format>image/svg+xml</dc:format><dc:type
           rdf:resource="http://purl.org/dc/dcmitype/StillImage" /></cc:Work></rdf:RDF></metadata><defs
     id="defs47" /><sodipodi:namedview
     pagecolor="#ffffff"
     bordercolor="#666666"
     borderopacity="1"
     objecttolerance="10"
     gridtolerance="10"
     guidetolerance="10"
     inkscape:pageopacity="0"
     inkscape:pageshadow="2"
     inkscape:window-width="2560"
     inkscape:window-height="1371"
     id="namedview45"
     showgrid="false"
     inkscape:zoom="3.8808651"
     inkscape:cx="34.141872"
     inkscape:cy="64.547464"
     inkscape:window-x="0"
     inkscape:window-y="0"
     inkscape:window-maximized="1"
     inkscape:current-layer="Layer_2"
     inkscape:showpageshadow="2"
     inkscape:pagecheckerboard="0"
     inkscape:deskcolor="#d1d1d1" /><style
     type="text/css"
     id="style3">
	.st0{fill:none;stroke:#69676C;stroke-width:4;stroke-miterlimit:10;}
	.st1{opacity:0.43;fill:#69676C;}
	.st2{fill:#69676C;}
</style><path
     class="st1"
     d="m 32.3,134.7 h 92.4 L 163.9,19.8 c 0,0 2.5,-10.9 -9.1,-11.4 -11.6,-0.5 -19,16.2 -19,16.2 0,0 -12.2,40.7 -24,70.4 0,0 -76.7,-4.6 -89.8,-4.6 -13.1,0 -16.6,5 -12.5,14.1 4.1,9.1 22.8,30.2 22.8,30.2 z"
     id="path13"
     style="fill:#1c2d92;fill-opacity:1" /><path
     class="st0"
     d="m 32.3,135.3 h 92.4 L 163.9,20.4 c 0,0 2.5,-10.9 -9.1,-11.4 -11.6,-0.5 -19,16.2 -19,16.2 0,0 -12.2,40.8 -24,70.4 0,0 -76.7,-4.6 -89.8,-4.6 -13.1,0 -16.6,5.1 -12.5,14.1 4.1,9 22.8,30.2 22.8,30.2 z"
     id="path11"
     style="stroke:#1c2d92;stroke-opacity:1" /><path
     class="st0"
     d="m 42.4,163.6 c 0,0 35.8,-24 12.9,-58.3 C 37.8,79 29.8,63.5 30.9,48.6"
     id="path19"
     style="stroke:#1c2d92;stroke-opacity:1" /><polygon
     class="st2"
     points="40.4,53.7 34.4,34.7 21,49.4 "
     id="polygon23"
     style="fill:#1c2d92;fill-opacity:1" /><path
     class="st0"
     d="m 66.1,163.6 c 0,0 35.8,-24 12.9,-58.3 C 61.4,79 53.5,63.5 54.6,48.6"
     id="path29"
     style="stroke:#1c2d92;stroke-opacity:1" /><polygon
     class="st2"
     points="64.1,53.7 58.1,34.7 44.6,49.4 "
     id="polygon33"
     style="fill:#1c2d92;fill-opacity:1" /><path
     class="st0"
     d="m 90.4,163.6 c 0,0 35.8,-24 12.9,-58.3 C 85.7,79 77.8,63.5 78.8,48.6"
     id="path39"
     style="stroke:#1c2d92;stroke-opacity:1" /><polygon
     class="st2"
     points="88.3,53.7 82.4,34.7 68.9,49.4 "
     id="polygon43"
     style="fill:#1c2d92;fill-opacity:1" /></svg>
