<?xml version="1.0" encoding="UTF-8" standalone="no"?>
<!-- Generator: Adobe Illustrator 21.0.0, SVG Export Plug-In . SVG Version: 6.00 Build 0)  -->

<svg
   version="1.1"
   id="Layer_2"
   x="0px"
   y="0px"
   viewBox="0 0 172 172"
   style="enable-background:new 0 0 172 172;"
   xml:space="preserve"
   inkscape:version="1.3.2 (091e20ef0f, 2023-11-25)"
   sodipodi:docname="HMI_HVAC_Left_Chair_ON.svg"
   xmlns:inkscape="http://www.inkscape.org/namespaces/inkscape"
   xmlns:sodipodi="http://sodipodi.sourceforge.net/DTD/sodipodi-0.dtd"
   xmlns="http://www.w3.org/2000/svg"
   xmlns:svg="http://www.w3.org/2000/svg"
   xmlns:rdf="http://www.w3.org/1999/02/22-rdf-syntax-ns#"
   xmlns:cc="http://creativecommons.org/ns#"
   xmlns:dc="http://purl.org/dc/elements/1.1/"><metadata
     id="metadata49"><rdf:RDF><cc:Work
         rdf:about=""><dc:format>image/svg+xml</dc:format><dc:type
           rdf:resource="http://purl.org/dc/dcmitype/StillImage" /></cc:Work></rdf:RDF></metadata><defs
     id="defs47" /><sodipodi:namedview
     pagecolor="#ffffff"
     bordercolor="#666666"
     borderopacity="1"
     objecttolerance="10"
     gridtolerance="10"
     guidetolerance="10"
     inkscape:pageopacity="0"
     inkscape:pageshadow="2"
     inkscape:window-width="2560"
     inkscape:window-height="1371"
     id="namedview45"
     showgrid="false"
     inkscape:zoom="3.8808651"
     inkscape:cx="34.141872"
     inkscape:cy="64.547464"
     inkscape:window-x="0"
     inkscape:window-y="0"
     inkscape:window-maximized="1"
     inkscape:current-layer="Layer_2"
     inkscape:showpageshadow="2"
     inkscape:pagecheckerboard="0"
     inkscape:deskcolor="#d1d1d1" /><style
     type="text/css"
     id="style3">
	.st0{fill:none;stroke:#69676C;stroke-width:4;stroke-miterlimit:10;}
	.st1{opacity:0.43;fill:#69676C;}
	.st2{fill:#69676C;}
</style><path
     class="st1"
     d="M 139.71164,134.7 H 47.311639 L 8.1116395,19.8 c 0,0 -2.5,-10.9 9.0999995,-11.4 11.6,-0.5 19,16.2 19,16.2 0,0 12.2,40.7 24,70.4 0,0 76.700001,-4.6 89.800001,-4.6 13.1,0 16.6,5 12.5,14.1 -4.1,9.1 -22.8,30.2 -22.8,30.2 z"
     id="path13"
     style="opacity:1;fill:#2962ff;fill-opacity:1" /><path
     class="st0"
     d="M 139.71164,135.3 H 47.311639 L 8.1116395,20.4 c 0,0 -2.5,-10.9 9.0999995,-11.4 11.6,-0.5 19,16.2 19,16.2 0,0 12.2,40.8 24,70.4 0,0 76.700001,-4.6 89.800001,-4.6 13.1,0 16.6,5.1 12.5,14.1 -4.1,9 -22.8,30.2 -22.8,30.2 z"
     id="path11"
     style="stroke:#c1d8ff;stroke-opacity:1" /><path
     class="st0"
     d="m 129.61164,163.6 c 0,0 -35.800002,-24 -12.9,-58.3 17.5,-26.3 25.5,-41.8 24.4,-56.7"
     id="path19"
     style="stroke:#c1d8ff;stroke-opacity:1" /><polygon
     class="st2"
     points="40.4,53.7 34.4,34.7 21,49.4 "
     id="polygon23"
     style="fill:#c1d8ff;fill-opacity:1"
     transform="matrix(-1,0,0,1,172.01164,0)" /><path
     class="st0"
     d="m 105.91164,163.6 c 0,0 -35.800001,-24 -12.900002,-58.3 C 110.61164,79 118.51164,63.5 117.41164,48.6"
     id="path29"
     style="stroke:#c1d8ff;stroke-opacity:1" /><polygon
     class="st2"
     points="64.1,53.7 58.1,34.7 44.6,49.4 "
     id="polygon33"
     style="fill:#c1d8ff;fill-opacity:1"
     transform="matrix(-1,0,0,1,172.01164,0)" /><path
     class="st0"
     d="m 81.611638,163.6 c 0,0 -35.799999,-24 -12.899999,-58.3 C 86.311638,79 94.211638,63.5 93.211638,48.6"
     id="path39"
     style="stroke:#c1d8ff;stroke-opacity:1" /><polygon
     class="st2"
     points="88.3,53.7 82.4,34.7 68.9,49.4 "
     id="polygon43"
     style="fill:#c1d8ff;fill-opacity:1"
     transform="matrix(-1,0,0,1,172.01164,0)" /></svg>
