<?xml version="1.0" encoding="UTF-8" standalone="no"?>
<!-- Generator: Adobe Illustrator 21.0.0, SVG Export Plug-In . SVG Version: 6.00 Build 0)  -->

<svg
   version="1.1"
   id="Layer_2"
   x="0px"
   y="0px"
   viewBox="0 0 318 219"
   style="enable-background:new 0 0 318 219;"
   xml:space="preserve"
   inkscape:version="1.3.2 (091e20ef0f, 2023-11-25)"
   sodipodi:docname="HMI_HVAC_Circulation_Inactive.svg"
   xmlns:inkscape="http://www.inkscape.org/namespaces/inkscape"
   xmlns:sodipodi="http://sodipodi.sourceforge.net/DTD/sodipodi-0.dtd"
   xmlns="http://www.w3.org/2000/svg"
   xmlns:svg="http://www.w3.org/2000/svg"
   xmlns:rdf="http://www.w3.org/1999/02/22-rdf-syntax-ns#"
   xmlns:cc="http://creativecommons.org/ns#"
   xmlns:dc="http://purl.org/dc/elements/1.1/"><metadata
     id="metadata33"><rdf:RDF><cc:Work
         rdf:about=""><dc:format>image/svg+xml</dc:format><dc:type
           rdf:resource="http://purl.org/dc/dcmitype/StillImage" /></cc:Work></rdf:RDF></metadata><defs
     id="defs31" /><sodipodi:namedview
     pagecolor="#ffffff"
     bordercolor="#666666"
     borderopacity="1"
     objecttolerance="10"
     gridtolerance="10"
     guidetolerance="10"
     inkscape:pageopacity="0"
     inkscape:pageshadow="2"
     inkscape:window-width="2560"
     inkscape:window-height="1371"
     id="namedview29"
     showgrid="false"
     inkscape:zoom="3.0479855"
     inkscape:cx="112.69739"
     inkscape:cy="102.19865"
     inkscape:window-x="0"
     inkscape:window-y="0"
     inkscape:window-maximized="1"
     inkscape:current-layer="Layer_2"
     inkscape:showpageshadow="2"
     inkscape:pagecheckerboard="0"
     inkscape:deskcolor="#d1d1d1" /><style
     type="text/css"
     id="style3">
	.st0{fill:#848286;}
	.st1{fill:none;stroke:#848286;stroke-miterlimit:10;}
</style><rect
     x="0.5"
     y="0.5"
     class="st1"
     width="317"
     height="218"
     id="rect27"
     style="stroke:#c1d8ff;stroke-opacity:1;fill:#2962ff;fill-opacity:1" /><path
     class="st0"
     d="m 218.2,164.1 c -5.7,0 -11.1,-2.2 -15.2,-6.3 -4.1,-4.1 -6.3,-9.5 -6.3,-15.2 h 2 c 0,5.2 2,10.1 5.7,13.8 3.7,3.7 8.6,5.7 13.8,5.7 0,0 0,0 0,0 10.8,0 19.5,-8.8 19.5,-19.6 h 2 c 0,11.9 -9.6,21.6 -21.5,21.6 z"
     id="path11"
     style="fill:#c1d8ff;fill-opacity:1" /><path
     class="st0"
     d="m 97.9,164.3 c -5.7,0 -11.1,-2.2 -15.2,-6.3 -4.1,-4.1 -6.3,-9.5 -6.3,-15.2 h 2 c 0,5.2 2,10.1 5.7,13.8 3.7,3.7 8.6,5.7 13.8,5.7 0,0 0,0 0,0 5.2,0 10.1,-2 13.8,-5.7 3.7,-3.7 5.7,-8.6 5.7,-13.8 h 2 c 0,5.7 -2.2,11.2 -6.3,15.2 -4,4 -9.4,6.3 -15.2,6.3 z"
     id="path13"
     style="fill:#c1d8ff;fill-opacity:1" /><rect
     x="117.89621"
     y="138.31786"
     transform="rotate(-0.08392909)"
     class="st0"
     width="61.200066"
     height="2.0000021"
     id="rect15"
     style="stroke-width:1;fill:#c1d8ff;fill-opacity:1" /><path
     class="st0"
     d="m 63.5,140.2 c -8.5,0 -14.7,-14.3 -14.7,-21.7 v -0.2 l 6.2,-25.2 1.9,0.5 -6.2,25.1 c 0,3.7 1.6,8.6 3.9,12.6 2.6,4.5 5.8,7 8.8,7 0,0 0,0 0,0 h 13.8 v 2 z"
     id="path17"
     style="fill:#c1d8ff;fill-opacity:1" /><path
     class="st0"
     d="m 238.7,140 v -2 h 15.8 c 2.7,0 5.9,-5.8 8.7,-15.4 2.2,-7.7 3.8,-16.7 3.9,-20.8 L 218.1,83.3 189.3,49 153.8,49.1 v -2 l 36.4,-0.1 29.1,34.5 49.8,18.9 v 0.7 c 0,3.9 -1.5,13.5 -4,22.1 -3.2,11.2 -6.8,16.9 -10.6,16.9 z"
     id="path19"
     style="fill:#c1d8ff;fill-opacity:1" /><path
     class="st0"
     d="M 56.7,94.1 55.5,92.5 76.6,76.6 90.8,57.7 c 0.6,-1 6.2,-10.6 18.3,-10.6 L 153.8,47 v 2 l -44.7,0.1 c -11.2,0 -16.3,9.3 -16.5,9.6 l -0.1,0.1 -14.6,19.3 z"
     id="path21"
     style="fill:#c1d8ff;fill-opacity:1" /><path
     class="st0"
     d="m 126.1,111.9 c -5.5,0 -10.7,-2.1 -14.5,-6 -3.9,-3.9 -6,-9.1 -6.1,-14.6 0,-5.5 2.1,-10.7 6,-14.6 3.9,-3.9 9.1,-6 14.6,-6.1 l 57.1,-0.1 v 2 l -57.1,0.1 c -5,0 -9.6,1.9 -13.1,5.5 -3.5,3.5 -5.4,8.2 -5.4,13.2 0,5 1.9,9.6 5.5,13.1 3.5,3.5 8.2,5.4 13.1,5.4 0,0 0,0 0,0 l 57.1,-0.1 v 2 l -57.2,0.2 c 0.1,0 0,0 0,0 z"
     id="path23"
     style="fill:#c1d8ff;fill-opacity:1" /><polygon
     class="st0"
     points="153.9,121.7 153.2,119.8 180.1,110.8 153.2,101.9 153.8,100 186.4,110.8 "
     id="polygon25"
     style="fill:#c1d8ff;fill-opacity:1" /></svg>
