<?xml version="1.0" encoding="UTF-8" standalone="no"?>
<!-- Generator: Adobe Illustrator 21.0.0, SVG Export Plug-In . SVG Version: 6.00 Build 0)  -->

<svg
   version="1.1"
   id="Layer_2"
   x="0px"
   y="0px"
   viewBox="0 0 140 140"
   style="enable-background:new 0 0 140 140;"
   xml:space="preserve"
   inkscape:version="1.3.2 (091e20ef0f, 2023-11-25)"
   sodipodi:docname="HMI_HVAC_AirDown_Inactive.svg"
   xmlns:inkscape="http://www.inkscape.org/namespaces/inkscape"
   xmlns:sodipodi="http://sodipodi.sourceforge.net/DTD/sodipodi-0.dtd"
   xmlns="http://www.w3.org/2000/svg"
   xmlns:svg="http://www.w3.org/2000/svg"
   xmlns:rdf="http://www.w3.org/1999/02/22-rdf-syntax-ns#"
   xmlns:cc="http://creativecommons.org/ns#"
   xmlns:dc="http://purl.org/dc/elements/1.1/"><metadata
     id="metadata27"><rdf:RDF><cc:Work
         rdf:about=""><dc:format>image/svg+xml</dc:format><dc:type
           rdf:resource="http://purl.org/dc/dcmitype/StillImage" /></cc:Work></rdf:RDF></metadata><defs
     id="defs25" /><sodipodi:namedview
     pagecolor="#ffffff"
     bordercolor="#666666"
     borderopacity="1"
     objecttolerance="10"
     gridtolerance="10"
     guidetolerance="10"
     inkscape:pageopacity="0"
     inkscape:pageshadow="2"
     inkscape:window-width="2560"
     inkscape:window-height="1371"
     id="namedview23"
     showgrid="false"
     inkscape:zoom="9.5358401"
     inkscape:cx="64.441097"
     inkscape:cy="63.49729"
     inkscape:window-x="0"
     inkscape:window-y="0"
     inkscape:window-maximized="1"
     inkscape:current-layer="Layer_2"
     inkscape:showpageshadow="2"
     inkscape:pagecheckerboard="0"
     inkscape:deskcolor="#d1d1d1" /><style
     type="text/css"
     id="style3">
	.st0{fill:#848286;}
	.st1{fill:none;stroke:#848286;stroke-width:2;stroke-miterlimit:10;}
</style><ellipse
     style="opacity:0.43;fill:#1a237e;fill-opacity:1;stroke:none;stroke-width:1.54651"
     id="path1"
     cx="69.47506"
     cy="69.236649"
     rx="67.215584"
     ry="67.476166" /><path
     class="st0"
     d="m 70,138 c -0.1,0 -0.3,0 -0.4,0 C 31.8,137.8 1.3,106.9 1.5,69.1 1.7,31.5 32.4,1 70,1 c 0.1,0 0.3,0 0.4,0 37.8,0.2 68.3,31.1 68.1,68.9 v 0 C 138.3,107.5 107.6,138 70,138 Z M 70,3.4 C 33.7,3.4 4.1,32.8 3.9,69.1 c -0.2,36.4 29.3,66.3 65.7,66.5 0.1,0 0.2,0 0.4,0 36.3,0 65.9,-29.4 66.1,-65.7 0.2,-36.4 -29.3,-66.3 -65.7,-66.5 -0.2,0 -0.3,0 -0.4,0 z"
     id="path11"
     style="fill:#1c2d92;fill-opacity:1" /><path
     class="st0"
     d="M 96.9,64.7 C 93.5,63 89.4,64.4 87.7,67.8 l -10,19.9 -20.2,-5.2 c -2,-0.5 -4,0.2 -5.2,1.9 l -15.4,20.9 c -1.6,2.2 -1.2,5.3 1.1,6.9 0.9,0.7 1.9,1 2.9,1 1.5,0 3,-0.7 4,-2 L 58.3,93 79.6,98.5 c 0.1,0.1 0.2,0.1 0.4,0.2 1,0.5 2,0.7 3.1,0.7 2.5,0 5,-1.4 6.2,-3.8 L 100,73.9 c 1.7,-3.4 0.3,-7.5 -3.1,-9.2 z"
     id="path17"
     style="fill:#1c2d92;fill-opacity:1" /><circle
     class="st0"
     cx="97.199997"
     cy="53.299999"
     r="8.3000002"
     id="circle19"
     style="fill:#1c2d92;fill-opacity:1" /><path
     class="st1"
     d="M 57.3,56.5 H 56.8 V 34.9 c 0,-0.2 -0.2,-0.4 -0.4,-0.4 h -8 c -0.2,0 -0.4,0.2 -0.4,0.4 v 21.6 h -9.4 c -0.1,0.1 0,0.4 0.1,0.6 L 52,71.3 c 0.1,0.1 0.3,0.1 0.4,0 L 65.8,57.1 c 0.1,-0.1 0,-0.4 -0.1,-0.6 h -1.6"
     id="path21"
     style="stroke:#1c2d92;stroke-opacity:1" /></svg>
