<?xml version="1.0" encoding="UTF-8" standalone="no"?>
<!-- Generator: Adobe Illustrator 21.1.0, SVG Export Plug-In . SVG Version: 6.00 Build 0)  -->

<svg
   version="1.1"
   id="Layer_1"
   x="0px"
   y="0px"
   viewBox="0 0 114 114"
   style="enable-background:new 0 0 114 114;"
   xml:space="preserve"
   sodipodi:docname="HMI_HVAC_Fan_Icon.svg"
   inkscape:version="1.3.2 (091e20ef0f, 2023-11-25)"
   xmlns:inkscape="http://www.inkscape.org/namespaces/inkscape"
   xmlns:sodipodi="http://sodipodi.sourceforge.net/DTD/sodipodi-0.dtd"
   xmlns="http://www.w3.org/2000/svg"
   xmlns:svg="http://www.w3.org/2000/svg"><defs
   id="defs4">
	

		
	
			
			
		</defs><sodipodi:namedview
   id="namedview4"
   pagecolor="#ffffff"
   bordercolor="#000000"
   borderopacity="0.25"
   inkscape:showpageshadow="2"
   inkscape:pageopacity="0.0"
   inkscape:pagecheckerboard="0"
   inkscape:deskcolor="#d1d1d1"
   inkscape:zoom="10.219298"
   inkscape:cx="51.618026"
   inkscape:cy="57.48927"
   inkscape:window-width="2560"
   inkscape:window-height="1371"
   inkscape:window-x="0"
   inkscape:window-y="0"
   inkscape:window-maximized="1"
   inkscape:current-layer="Layer_1" />
<style
   type="text/css"
   id="style1">
	.st0{fill:none;stroke:#FFFFFF;stroke-width:2;stroke-miterlimit:10;}
	.st1{fill:url(#SVGID_1_);}
</style>
<ellipse
   style="opacity:0.43;fill:#1a237e;fill-opacity:1;stroke:none;stroke-width:1.27443"
   id="path1-3"
   cx="57.164497"
   cy="57.009445"
   rx="55.389957"
   ry="55.604691" /><g
   id="g1">
				<circle
   transform="matrix(0.8685,-0.4958,0.4958,0.8685,-21.9603,36.0747)"
   class="st0"
   cx="57"
   cy="59.400002"
   id="ellipse1"
   r="3.7" />
				<path
   class="st0"
   d="M 58.1,50.7 C 56.3,50.5 54.3,50.8 52.6,51.8 52,52.1 51.5,52.5 51,53 50.8,52.5 50.7,52 50.5,51.4 49.1,45.5 55,43.3 55.6,37.3 56.5,28.7 45,28.5 40.3,33.6 c -6.2,6.7 -3.6,14 -0.4,18.3 2.5,3.2 5.5,5.2 8.3,6.3 -0.2,1.8 0.1,3.8 1.1,5.5 0.3,0.6 0.7,1.1 1.2,1.6 -0.5,0.2 -1,0.3 -1.6,0.5 C 43,67.2 40.8,61.3 34.8,60.7 26.2,59.8 26,71.3 31.1,76 c 6.7,6.2 14,3.6 18.3,0.3 3.2,-2.5 5.2,-5.5 6.3,-8.3 1.8,0.2 3.8,-0.1 5.5,-1.1 0.6,-0.3 1.1,-0.7 1.6,-1.2 0.2,0.5 0.3,1 0.5,1.6 1.4,5.9 -4.5,8.1 -5.1,14.1 -0.9,8.6 10.6,8.8 15.3,3.7 6.2,-6.7 3.6,-14 0.3,-18.3 -2.5,-3.2 -5.5,-5.2 -8.3,-6.3 0.2,-1.8 -0.1,-3.8 -1.1,-5.5 -0.3,-0.6 -0.7,-1.1 -1.2,-1.6 0.5,-0.2 1,-0.3 1.6,-0.5 5.9,-1.4 8.1,4.5 14.1,5.1 8.6,0.9 8.8,-10.6 3.7,-15.3 -6.7,-6.2 -14,-3.6 -18.3,-0.4 -1.2,0.9 -2.2,1.8 -3,2.8"
   id="path1" />
			</g><g
   id="g2"
   style="fill:#c1d8ff;fill-opacity:1">
				
					<linearGradient
   id="SVGID_1_"
   gradientUnits="userSpaceOnUse"
   x1="-26.132299"
   y1="141.61571"
   x2="145.40359"
   y2="-22.8267"
   gradientTransform="matrix(1,0.00546456,-0.00546456,1,-2.5808,-2.4627)">
					<stop
   offset="0"
   style="stop-color:#00ADDC"
   id="stop1" />
					<stop
   offset="1"
   style="stop-color:#6BFBFF"
   id="stop2" />
				</linearGradient>
				<path
   class="st1"
   d="m 57,114 c -0.1,0 -0.2,0 -0.3,0 C 25.3,113.8 -0.2,88.1 0,56.7 0.2,25.4 25.7,0 57,0 c 0.1,0 0.2,0 0.3,0 31.4,0.2 56.9,25.9 56.7,57.3 v 0 C 113.8,88.6 88.3,114 57,114 Z M 57,2 C 26.8,2 2.2,26.5 2,56.7 1.8,87 26.4,111.8 56.7,112 c 0.1,0 0.2,0 0.3,0 30.2,0 54.8,-24.5 55,-54.7 C 112.2,27 87.6,2.2 57.3,2 57.2,2 57.1,2 57,2 Z"
   id="path2"
   style="fill:#c1d8ff;fill-opacity:1" />
			</g>
</svg>
