<?xml version="1.0" encoding="UTF-8" standalone="no"?>
<!-- Generator: Adobe Illustrator 21.1.0, SVG Export Plug-In . SVG Version: 6.00 Build 0)  -->

<svg
   version="1.1"
   id="Layer_2"
   x="0px"
   y="0px"
   viewBox="0 0 140 140"
   style="enable-background:new 0 0 140 140;"
   xml:space="preserve"
   sodipodi:docname="HMI_HVAC_AirDown_Active.svg"
   inkscape:version="1.3.2 (091e20ef0f, 2023-11-25)"
   xmlns:inkscape="http://www.inkscape.org/namespaces/inkscape"
   xmlns:sodipodi="http://sodipodi.sourceforge.net/DTD/sodipodi-0.dtd"
   xmlns="http://www.w3.org/2000/svg"
   xmlns:svg="http://www.w3.org/2000/svg"><defs
   id="defs11">
	

		
	
			
			
			
		
				<linearGradient
   id="SVGID_1_"
   gradientUnits="userSpaceOnUse"
   x1="-30.516001"
   y1="171.18649"
   x2="175.7655"
   y2="-26.5646"
   gradientTransform="matrix(1,0.00546456,-0.00546456,1,-2.5085,-2.852)">
					<stop
   offset="0"
   style="stop-color:#c1d8ff;stop-opacity:1;"
   id="stop1" />
					<stop
   offset="1"
   style="stop-color:#0DF9FF"
   id="stop2" />
				</linearGradient>
				
			</defs><sodipodi:namedview
   id="namedview11"
   pagecolor="#ffffff"
   bordercolor="#000000"
   borderopacity="0.25"
   inkscape:showpageshadow="2"
   inkscape:pageopacity="0.0"
   inkscape:pagecheckerboard="0"
   inkscape:deskcolor="#d1d1d1"
   inkscape:zoom="8.3214286"
   inkscape:cx="70"
   inkscape:cy="70"
   inkscape:window-width="2560"
   inkscape:window-height="1371"
   inkscape:window-x="0"
   inkscape:window-y="0"
   inkscape:window-maximized="1"
   inkscape:current-layer="Layer_2" />
<style
   type="text/css"
   id="style1">
	.st0{fill:url(#SVGID_1_);}
	.st1{fill:url(#SVGID_2_);}
	.st2{fill:url(#SVGID_3_);}
	.st3{fill:url(#SVGID_4_);}
</style>
<ellipse
   style="opacity:1;fill:#2962ff;fill-opacity:1;stroke:none;stroke-width:1.54683"
   id="path1"
   cx="70.51873"
   cy="69.59594"
   rx="67.354645"
   ry="67.364502" /><path
   class="st0"
   d="m 70.1,138.1 c -0.1,0 -0.3,0 -0.4,0 C 31.9,137.9 1.3,107 1.5,69.2 1.7,31.5 32.4,1 70,1 c 0.1,0 0.3,0 0.4,0 37.8,0.2 68.4,31.1 68.2,68.9 v 0 c -0.2,37.7 -30.9,68.2 -68.5,68.2 z M 70,3.4 C 33.7,3.4 4.1,32.8 3.9,69.2 c -0.2,36.5 29.3,66.3 65.8,66.5 0.1,0 0.2,0 0.4,0 36.3,0 65.9,-29.4 66.1,-65.8 0.2,-36.5 -29.3,-66.3 -65.8,-66.5 -0.1,0 -0.2,0 -0.4,0 z"
   id="path2"
   style="fill:#c1d8ff;fill-opacity:1" /><g
   id="g8"
   style="fill:#c1d8ff;fill-opacity:1">
				<g
   id="g7"
   style="fill:#c1d8ff;fill-opacity:1">
					<g
   id="g6"
   style="fill:#c1d8ff;fill-opacity:1">
						<linearGradient
   id="SVGID_2_"
   gradientUnits="userSpaceOnUse"
   x1="-101.4773"
   y1="281.13791"
   x2="140.6279"
   y2="12.7169">
							<stop
   offset="0"
   style="stop-color:#00ADDC"
   id="stop3" />
							<stop
   offset="1"
   style="stop-color:#6BFBFF"
   id="stop4" />
						</linearGradient>
						<path
   class="st1"
   d="M 96.9,64.7 C 93.5,63 89.4,64.4 87.7,67.8 l -10,19.9 -20.2,-5.2 c -2,-0.5 -4,0.2 -5.2,1.9 l -15.4,20.9 c -1.6,2.2 -1.2,5.3 1.1,6.9 0.9,0.7 1.9,1 2.9,1 1.5,0 3,-0.7 4,-2 L 58.3,93 79.6,98.5 c 0.1,0.1 0.2,0.1 0.4,0.2 1,0.5 2,0.7 3.1,0.7 2.5,0 5,-1.4 6.2,-3.8 L 100,74 c 1.7,-3.4 0.4,-7.6 -3.1,-9.3 z"
   id="path4"
   style="fill:#c1d8ff;fill-opacity:1" />
						<linearGradient
   id="SVGID_3_"
   gradientUnits="userSpaceOnUse"
   x1="-105.1744"
   y1="277.80331"
   x2="136.93089"
   y2="9.3823004">
							<stop
   offset="0"
   style="stop-color:#00ADDC"
   id="stop5" />
							<stop
   offset="1"
   style="stop-color:#6BFBFF"
   id="stop6" />
						</linearGradient>
						<circle
   class="st2"
   cx="97.300003"
   cy="53.400002"
   r="8.3000002"
   id="circle6"
   style="fill:#c1d8ff;fill-opacity:1" />
					</g>
				</g>
			</g><g
   id="g9"
   style="fill:#c1d8ff;fill-opacity:1">
				<linearGradient
   id="SVGID_4_"
   gradientUnits="userSpaceOnUse"
   x1="-131.1376"
   y1="254.3855"
   x2="110.9676"
   y2="-14.0356">
					<stop
   offset="0"
   style="stop-color:#00ADDC"
   id="stop8" />
					<stop
   offset="1"
   style="stop-color:#6BFBFF"
   id="stop9" />
				</linearGradient>
				<path
   class="st3"
   d="m 52.2,72.4 c -0.4,0 -0.7,-0.1 -0.9,-0.4 L 37.9,57.8 c -0.4,-0.4 -0.7,-1.3 -0.1,-1.9 l 0.3,-0.3 H 47 V 34.9 c 0,-0.8 0.6,-1.4 1.4,-1.4 h 8 c 0.8,0 1.4,0.6 1.4,1.4 v 21.6 h -0.5 v 1 h -1.5 v -22 h -6.9 v 22 H 40.4 L 52.2,70 64.1,57.4 v -1.9 h 2 l 0.3,0.3 c 0.4,0.4 0.7,1.4 0.1,2 L 53.2,72 c -0.3,0.2 -0.6,0.4 -1,0.4 z m 12.9,-16 z m -25.7,0 z"
   id="path9"
   style="fill:#c1d8ff;fill-opacity:1" />
			</g>
</svg>
